<svg width="15" height="14" viewBox="0 0 15 14" fill="none" xmlns="http://www.w3.org/2000/svg">
<path d="M3.20499 1.49977C3.2048 1.8976 3.04657 2.27905 2.76512 2.56021C2.48368 2.84138 2.10207 2.99922 1.70424 2.99902C1.30642 2.99882 0.924968 2.8406 0.643804 2.55915C0.36264 2.27771 0.204795 1.8961 0.204994 1.49827C0.205193 1.10045 0.363419 0.718997 0.644864 0.437833C0.92631 0.156669 1.30792 -0.00117529 1.70574 -0.000976375C2.10357 -0.000777462 2.48502 0.157449 2.76619 0.438894C3.04735 0.720339 3.20519 1.10195 3.20499 1.49977ZM3.24999 4.10977H0.249994V13.4998H3.24999V4.10977ZM7.98999 4.10977H5.00499V13.4998H7.95999V8.57227C7.95999 5.82727 11.5375 5.57227 11.5375 8.57227V13.4998H14.5V7.55227C14.5 2.92477 9.20499 3.09727 7.95999 5.36977L7.98999 4.10977Z" fill="#75757F"/>
</svg>
